<svg xmlns="http://www.w3.org/2000/svg" viewBox="0 0 512 512">
  <defs><radialGradient id="b" cx="36%" cy="72%"><stop stop-color="#7b2d0e"/><stop offset=".55" stop-color="#170b06"/><stop offset="1" stop-color="#080705"/></radialGradient><linearGradient id="i" x1="0" x2="1"><stop stop-color="#343531"/><stop offset=".5" stop-color="#101210"/><stop offset="1" stop-color="#292a27"/></linearGradient></defs>
  <rect width="512" height="512" rx="106" fill="url(#b)"/>
  <path d="M150 246c4-118 208-118 212 0" fill="none" stroke="#181a18" stroke-width="28" stroke-linecap="round"/>
  <path d="M121 262c0-58 48-94 135-94s135 36 135 94v77c0 62-47 101-135 101s-135-39-135-101z" fill="url(#i)"/>
  <path d="M377 272l95-35-28 72-62 31z" fill="#171917"/>
  <ellipse cx="256" cy="193" rx="62" ry="17" fill="#222421"/><circle cx="256" cy="173" r="17" fill="#171917"/>
  <g fill="#44453f" opacity=".72"><circle cx="177" cy="282" r="5"/><circle cx="208" cy="265" r="5"/><circle cx="240" cy="258" r="5"/><circle cx="273" cy="258" r="5"/><circle cx="305" cy="266" r="5"/><circle cx="336" cy="283" r="5"/><circle cx="191" cy="312" r="5"/><circle cx="224" cy="299" r="5"/><circle cx="257" cy="296" r="5"/><circle cx="291" cy="300" r="5"/><circle cx="323" cy="313" r="5"/></g>
</svg>
